# xmcd
# 
# Track frame offsets:
#     150
#     12892
#     30255
#     37512
#     58462
#     67675
#     85060
#     97012
#     118087
#     130802
#     148122
#     164617
#     172872
#     187637
# 
# Disc length: 2585
# 
# Revision: 2
# Processed by: cddbd v1.5.2PL0 Copyright (c) Steve Scherf et al.
# Submitted via: BonkEnc v1.0.8
# 
DISCID=a80a170e
DTITLE=日向敏文 - Isis
DYEAR=1988
DGENRE=Instrumental
TTITLE0=Ode To Unknown
TTITLE1=Last Troubadour
TTITLE2=Anxiety
TTITLE3=Isis
TTITLE4=Xenon
TTITLE5=Avenues..., Last Year
TTITLE6=More
TTITLE7=Rondeau
TTITLE8=Ombra Azzura
TTITLE9=Ritz Song
TTITLE10=Soliloquy
TTITLE11=A Remark You Made
TTITLE12=I'll Always Remember
TTITLE13=Epilogue
EXTD=
EXTT0=
EXTT1=
EXTT2=
EXTT3=
EXTT4=
EXTT5=
EXTT6=
EXTT7=
EXTT8=
EXTT9=
EXTT10=
EXTT11=
EXTT12=
EXTT13=
PLAYORDER=
